<mxfile host="app.diagrams.net" modified="2021-11-24T06:29:41.414Z" agent="5.0 (Macintosh; Intel Mac OS X 10_15_7) AppleWebKit/537.36 (KHTML, like Gecko) Chrome/91.0.4472.114 Safari/537.36" etag="8khRVjNQ_FJj58SPkc5O" version="15.8.3" type="github">
  <diagram id="J9MYOVlcLSbenYal1-ZK" name="Page-1">
    <mxGraphModel dx="1892" dy="1228" grid="1" gridSize="10" guides="1" tooltips="1" connect="1" arrows="1" fold="1" page="1" pageScale="1" pageWidth="827" pageHeight="1169" math="0" shadow="0">
      <root>
        <mxCell id="0" />
        <mxCell id="1" parent="0" />
        <mxCell id="q4uMH3ldNayofh-_5lqI-28" value="&lt;font style=&quot;font-size: 20px&quot;&gt;&lt;b&gt;协同语义&amp;nbsp; &amp;nbsp; 相关性模型&lt;/b&gt;&lt;/font&gt;" style="rounded=0;whiteSpace=wrap;html=1;fillColor=#1ba1e2;fontColor=#ffffff;strokeColor=#006EAF;" parent="1" vertex="1">
          <mxGeometry x="216.5" y="585" width="259" height="55" as="geometry" />
        </mxCell>
        <mxCell id="q4uMH3ldNayofh-_5lqI-34" style="edgeStyle=orthogonalEdgeStyle;rounded=0;orthogonalLoop=1;jettySize=auto;html=1;entryX=0.5;entryY=0;entryDx=0;entryDy=0;" parent="1" source="q4uMH3ldNayofh-_5lqI-31" target="q4uMH3ldNayofh-_5lqI-33" edge="1">
          <mxGeometry relative="1" as="geometry" />
        </mxCell>
        <mxCell id="q4uMH3ldNayofh-_5lqI-31" value="标题" style="rounded=0;whiteSpace=wrap;html=1;" parent="1" vertex="1">
          <mxGeometry x="324.5" y="830" width="71" height="30" as="geometry" />
        </mxCell>
        <mxCell id="q4uMH3ldNayofh-_5lqI-35" style="edgeStyle=orthogonalEdgeStyle;rounded=0;orthogonalLoop=1;jettySize=auto;html=1;entryX=0.5;entryY=0;entryDx=0;entryDy=0;" parent="1" source="q4uMH3ldNayofh-_5lqI-32" target="q4uMH3ldNayofh-_5lqI-33" edge="1">
          <mxGeometry relative="1" as="geometry" />
        </mxCell>
        <mxCell id="q4uMH3ldNayofh-_5lqI-32" value="正文的关键词（News attention）" style="rounded=0;whiteSpace=wrap;html=1;" parent="1" vertex="1">
          <mxGeometry x="435.5" y="830" width="120" height="30" as="geometry" />
        </mxCell>
        <mxCell id="q4uMH3ldNayofh-_5lqI-38" style="edgeStyle=orthogonalEdgeStyle;rounded=0;orthogonalLoop=1;jettySize=auto;html=1;entryX=0.5;entryY=0;entryDx=0;entryDy=0;" parent="1" source="q4uMH3ldNayofh-_5lqI-33" target="q4uMH3ldNayofh-_5lqI-37" edge="1">
          <mxGeometry relative="1" as="geometry" />
        </mxCell>
        <mxCell id="q4uMH3ldNayofh-_5lqI-41" style="edgeStyle=orthogonalEdgeStyle;rounded=0;orthogonalLoop=1;jettySize=auto;html=1;entryX=0.5;entryY=0;entryDx=0;entryDy=0;" parent="1" source="q4uMH3ldNayofh-_5lqI-33" target="q4uMH3ldNayofh-_5lqI-40" edge="1">
          <mxGeometry relative="1" as="geometry" />
        </mxCell>
        <mxCell id="q4uMH3ldNayofh-_5lqI-33" value="标题党判断" style="rhombus;whiteSpace=wrap;html=1;" parent="1" vertex="1">
          <mxGeometry x="375.5" y="900" width="80" height="60" as="geometry" />
        </mxCell>
        <mxCell id="q4uMH3ldNayofh-_5lqI-37" value="term" style="rounded=0;whiteSpace=wrap;html=1;" parent="1" vertex="1">
          <mxGeometry x="380" y="1000" width="71" height="30" as="geometry" />
        </mxCell>
        <mxCell id="q4uMH3ldNayofh-_5lqI-39" value="否" style="text;html=1;align=center;verticalAlign=middle;resizable=0;points=[];autosize=1;strokeColor=none;fillColor=none;" parent="1" vertex="1">
          <mxGeometry x="414.5" y="970" width="30" height="20" as="geometry" />
        </mxCell>
        <mxCell id="q4uMH3ldNayofh-_5lqI-40" value="News attention" style="rounded=0;whiteSpace=wrap;html=1;" parent="1" vertex="1">
          <mxGeometry x="475.5" y="960" width="90" height="30" as="geometry" />
        </mxCell>
        <mxCell id="q4uMH3ldNayofh-_5lqI-42" value="是" style="text;html=1;align=center;verticalAlign=middle;resizable=0;points=[];autosize=1;strokeColor=none;fillColor=none;" parent="1" vertex="1">
          <mxGeometry x="495.5" y="910" width="30" height="20" as="geometry" />
        </mxCell>
        <mxCell id="mXwv5pp8Qr8styJt2xt--14" value="" style="shape=singleArrow;direction=south;whiteSpace=wrap;html=1;fillColor=#f5f5f5;gradientColor=#b3b3b3;strokeColor=#666666;" vertex="1" parent="1">
          <mxGeometry x="261" y="550" width="19" height="30" as="geometry" />
        </mxCell>
        <mxCell id="mXwv5pp8Qr8styJt2xt--15" value="" style="shape=singleArrow;direction=south;whiteSpace=wrap;html=1;fillColor=#f5f5f5;gradientColor=#b3b3b3;strokeColor=#666666;" vertex="1" parent="1">
          <mxGeometry x="406" y="550" width="19" height="30" as="geometry" />
        </mxCell>
        <mxCell id="mXwv5pp8Qr8styJt2xt--16" value="" style="shape=singleArrow;direction=south;whiteSpace=wrap;html=1;fillColor=#f5f5f5;gradientColor=#b3b3b3;strokeColor=#666666;" vertex="1" parent="1">
          <mxGeometry x="333.75" y="640" width="19" height="30" as="geometry" />
        </mxCell>
        <mxCell id="mXwv5pp8Qr8styJt2xt--18" value="图片周围文本" style="rounded=1;whiteSpace=wrap;html=1;fontFamily=Lucida Console;" vertex="1" parent="1">
          <mxGeometry x="230.25" y="520" width="80.5" height="30" as="geometry" />
        </mxCell>
        <mxCell id="mXwv5pp8Qr8styJt2xt--19" value="图片" style="rounded=1;whiteSpace=wrap;html=1;fontFamily=Lucida Console;" vertex="1" parent="1">
          <mxGeometry x="375.5" y="520" width="80.5" height="30" as="geometry" />
        </mxCell>
        <mxCell id="mXwv5pp8Qr8styJt2xt--20" value="图片标签" style="rounded=1;whiteSpace=wrap;html=1;fontFamily=Lucida Console;" vertex="1" parent="1">
          <mxGeometry x="305.75" y="670" width="80.5" height="30" as="geometry" />
        </mxCell>
        <mxCell id="mXwv5pp8Qr8styJt2xt--21" value="&lt;h3&gt;&lt;font face=&quot;Times New Roman&quot; color=&quot;#ffffff&quot; style=&quot;font-size: 20px&quot;&gt;Multimodal&amp;nbsp; Transformer&lt;/font&gt;&lt;/h3&gt;" style="rounded=1;whiteSpace=wrap;html=1;fontFamily=Lucida Console;fillColor=#1ba1e2;fontColor=#ffffff;strokeColor=#006EAF;" vertex="1" parent="1">
          <mxGeometry x="211.5" y="310" width="318.5" height="50" as="geometry" />
        </mxCell>
      </root>
    </mxGraphModel>
  </diagram>
</mxfile>
